<svg viewBox="0 0 24 28" fill="none" xmlns="http://www.w3.org/2000/svg" aria-hidden="true">
  <path
    d="M8.5 8.75C8.5 7.985 9.017 7.5 9.5 7.5C9.983 7.5 10.5 7.985 10.5 8.75C10.5 9.515 9.983 10 9.5 10C9.017 10 8.5 9.515 8.5 8.75ZM9.5 6.5C8.326 6.5 7.5 7.582 7.5 8.75C7.5 9.918 8.326 11 9.5 11C10.674 11 11.5 9.918 11.5 8.75C11.5 7.582 10.674 6.5 9.5 6.5ZM5 10C4.517 10 4 10.485 4 11.25C4 12.015 4.517 12.5 5 12.5C5.483 12.5 6 12.015 6 11.25C6 10.485 5.483 10 5 10ZM3 11.25C3 10.082 3.826 9 5 9C6.174 9 7 10.082 7 11.25C7 12.418 6.174 13.5 5 13.5C3.826 13.5 3 12.418 3 11.25ZM19 10C18.517 10 18 10.485 18 11.25C18 12.015 18.517 12.5 19 12.5C19.483 12.5 20 12.015 20 11.25C20 10.485 19.483 10 19 10ZM17 11.25C17 10.082 17.826 9 19 9C20.174 9 21 10.082 21 11.25C21 12.418 20.174 13.5 19 13.5C17.826 13.5 17 12.418 17 11.25ZM14.5 7.5C14.017 7.5 13.5 7.985 13.5 8.75C13.5 9.515 14.017 10 14.5 10C14.983 10 15.5 9.515 15.5 8.75C15.5 7.985 14.983 7.5 14.5 7.5ZM12.5 8.75C12.5 7.582 13.326 6.5 14.5 6.5C15.674 6.5 16.5 7.582 16.5 8.75C16.5 9.918 15.674 11 14.5 11C13.326 11 12.5 9.918 12.5 8.75ZM7 18.5C7 17.1739 7.52678 15.9021 8.46447 14.9645C9.40215 14.0268 10.6739 13.5 12 13.5C13.3261 13.5 14.5979 14.0268 15.5355 14.9645C16.4732 15.9021 17 17.1739 17 18.5C17 19.106 16.703 19.59 16.21 19.94C15.708 20.297 15.014 20.5 14.305 20.5H9.695C8.985 20.5 8.292 20.297 7.79 19.94C7.297 19.59 7 19.106 7 18.5ZM12 12.5C10.4087 12.5 8.88258 13.1321 7.75736 14.2574C6.63214 15.3826 6 16.9087 6 18.5C6 19.486 6.504 20.253 7.21 20.755C7.907 21.25 8.811 21.5 9.695 21.5H14.305C15.189 21.5 16.093 21.25 16.789 20.755C17.496 20.253 18 19.486 18 18.5C18 16.9087 17.3679 15.3826 16.2426 14.2574C15.1174 13.1321 13.5913 12.5 12 12.5Z"
    fill="#f37d16"
  />
</svg>
