<svg preserveAspectRatio="none" width="100%" height="100%" overflow="visible" style="display: block;" viewBox="0 0 38.5 45.5022" fill="none" xmlns="http://www.w3.org/2000/svg">
<path id="Vector" d="M38.5 22.7511C38.5014 23.3453 38.3491 23.9297 38.0578 24.4476C37.7664 24.9655 37.3461 25.3991 36.8375 25.7064L5.32 44.987C4.78863 45.3124 4.18002 45.49 3.55705 45.5016C2.93407 45.5131 2.31931 45.3581 1.77625 45.0527C1.23837 44.7519 0.790292 44.3133 0.478108 43.782C0.165925 43.2507 0.000898751 42.6458 0 42.0295V3.47265C0.000898751 2.8564 0.165925 2.25151 0.478108 1.72019C0.790292 1.18886 1.23837 0.750272 1.77625 0.449529C2.31931 0.144042 2.93407 -0.0109365 3.55705 0.000600133C4.18002 0.0121367 4.78863 0.18977 5.32 0.515155L36.8375 19.7958C37.3461 20.1031 37.7664 20.5367 38.0578 21.0546C38.3491 21.5725 38.5014 22.1569 38.5 22.7511Z" fill="white"/>
</svg>
