<svg preserveAspectRatio="xMidYMid meet" width="100%" height="100%" viewBox="0 0 18.75 14.375" fill="none" xmlns="http://www.w3.org/2000/svg">
<g id="Group">
<path id="Vector" opacity="0.2" d="M13.75 11.25H16.875V13.125C16.875 13.2908 16.8092 13.4497 16.6919 13.5669C16.5747 13.6842 16.4158 13.75 16.25 13.75H14.375C14.2092 13.75 14.0503 13.6842 13.9331 13.5669C13.8158 13.4497 13.75 13.2908 13.75 13.125V11.25ZM1.875 13.125C1.875 13.2908 1.94085 13.4497 2.05806 13.5669C2.17527 13.6842 2.33424 13.75 2.5 13.75H4.375C4.54076 13.75 4.69973 13.6842 4.81694 13.5669C4.93415 13.4497 5 13.2908 5 13.125V11.25H1.875V13.125ZM14.5398 0.996094C14.4907 0.885636 14.4106 0.791789 14.3093 0.725923C14.2079 0.660058 14.0896 0.625001 13.9688 0.625H4.78125C4.66037 0.625001 4.54208 0.660058 4.44072 0.725923C4.33935 0.791789 4.25926 0.885636 4.21016 0.996094L1.875 6.25H16.875L14.5398 0.996094Z" fill="#D5CABF"/>
<path id="Vector_2" d="M18.125 5.625H17.2812L15.1109 0.742188C15.0127 0.521271 14.8525 0.333578 14.6498 0.201847C14.4471 0.0701169 14.2105 2.8939e-06 13.9688 0H4.78125C4.53948 2.8939e-06 4.30291 0.0701169 4.10018 0.201847C3.89745 0.333578 3.73728 0.521271 3.63906 0.742188L1.46875 5.625H0.625C0.45924 5.625 0.300268 5.69085 0.183058 5.80806C0.065848 5.92527 0 6.08424 0 6.25C0 6.41576 0.065848 6.57473 0.183058 6.69194C0.300268 6.80915 0.45924 6.875 0.625 6.875H1.25V13.125C1.25 13.4565 1.3817 13.7745 1.61612 14.0089C1.85054 14.2433 2.16848 14.375 2.5 14.375H4.375C4.70652 14.375 5.02446 14.2433 5.25888 14.0089C5.4933 13.7745 5.625 13.4565 5.625 13.125V11.875H13.125V13.125C13.125 13.4565 13.2567 13.7745 13.4911 14.0089C13.7255 14.2433 14.0435 14.375 14.375 14.375H16.25C16.5815 14.375 16.8995 14.2433 17.1339 14.0089C17.3683 13.7745 17.5 13.4565 17.5 13.125V6.875H18.125C18.2908 6.875 18.4497 6.80915 18.5669 6.69194C18.6842 6.57473 18.75 6.41576 18.75 6.25C18.75 6.08424 18.6842 5.92527 18.5669 5.80806C18.4497 5.69085 18.2908 5.625 18.125 5.625ZM4.78125 1.25H13.9688L15.9133 5.625H2.83672L4.78125 1.25ZM4.375 13.125H2.5V11.875H4.375V13.125ZM14.375 13.125V11.875H16.25V13.125H14.375ZM16.25 10.625H2.5V6.875H16.25V10.625ZM3.75 8.75C3.75 8.58424 3.81585 8.42527 3.93306 8.30806C4.05027 8.19085 4.20924 8.125 4.375 8.125H5.625C5.79076 8.125 5.94973 8.19085 6.06694 8.30806C6.18415 8.42527 6.25 8.58424 6.25 8.75C6.25 8.91576 6.18415 9.07473 6.06694 9.19194C5.94973 9.30915 5.79076 9.375 5.625 9.375H4.375C4.20924 9.375 4.05027 9.30915 3.93306 9.19194C3.81585 9.07473 3.75 8.91576 3.75 8.75ZM12.5 8.75C12.5 8.58424 12.5658 8.42527 12.6831 8.30806C12.8003 8.19085 12.9592 8.125 13.125 8.125H14.375C14.5408 8.125 14.6997 8.19085 14.8169 8.30806C14.9342 8.42527 15 8.58424 15 8.75C15 8.91576 14.9342 9.07473 14.8169 9.19194C14.6997 9.30915 14.5408 9.375 14.375 9.375H13.125C12.9592 9.375 12.8003 9.30915 12.6831 9.19194C12.5658 9.07473 12.5 8.91576 12.5 8.75Z" fill="#D5CABF"/>
</g>
</svg>
