<svg preserveAspectRatio="xMidYMid meet" width="100%" height="100%" viewBox="0 0 13.75 18.75" fill="none" xmlns="http://www.w3.org/2000/svg">
<g id="Group">
<path id="Vector" opacity="0.2" d="M13.125 5.625V9.375H0.625V5.625C0.625 5.12772 0.822544 4.65081 1.17417 4.29917C1.52581 3.94754 2.00272 3.75 2.5 3.75H11.25C11.7473 3.75 12.2242 3.94754 12.5758 4.29917C12.9275 4.65081 13.125 5.12772 13.125 5.625Z" fill="#D5CABF"/>
<path id="Vector_2" d="M11.25 3.125H7.5V1.25H10C10.1658 1.25 10.3247 1.18415 10.4419 1.06694C10.5592 0.949732 10.625 0.79076 10.625 0.625C10.625 0.45924 10.5592 0.300268 10.4419 0.183058C10.3247 0.065848 10.1658 0 10 0H3.75C3.58424 0 3.42527 0.065848 3.30806 0.183058C3.19085 0.300268 3.125 0.45924 3.125 0.625C3.125 0.79076 3.19085 0.949732 3.30806 1.06694C3.42527 1.18415 3.58424 1.25 3.75 1.25H6.25V3.125H2.5C1.83696 3.125 1.20107 3.38839 0.732233 3.85723C0.263392 4.32607 0 4.96196 0 5.625V13.75C0 14.413 0.263392 15.0489 0.732233 15.5178C1.20107 15.9866 1.83696 16.25 2.5 16.25H3.125L2 17.75C1.95075 17.8157 1.91492 17.8904 1.89455 17.9699C1.87418 18.0494 1.86967 18.1321 1.88128 18.2134C1.89289 18.2946 1.92039 18.3728 1.9622 18.4434C2.00402 18.5141 2.05934 18.5758 2.125 18.625C2.19066 18.6742 2.26538 18.7101 2.34489 18.7304C2.42439 18.7508 2.50714 18.7553 2.58839 18.7437C2.66964 18.7321 2.74781 18.7046 2.81843 18.6628C2.88906 18.621 2.95075 18.5657 3 18.5L4.6875 16.25H9.0625L10.75 18.5C10.8495 18.6326 10.9975 18.7203 11.1616 18.7437C11.3257 18.7672 11.4924 18.7245 11.625 18.625C11.7576 18.5255 11.8453 18.3775 11.8687 18.2134C11.8922 18.0493 11.8495 17.8826 11.75 17.75L10.625 16.25H11.25C11.913 16.25 12.5489 15.9866 13.0178 15.5178C13.4866 15.0489 13.75 14.413 13.75 13.75V5.625C13.75 4.96196 13.4866 4.32607 13.0178 3.85723C12.5489 3.38839 11.913 3.125 11.25 3.125ZM2.5 4.375H11.25C11.5815 4.375 11.8995 4.5067 12.1339 4.74112C12.3683 4.97554 12.5 5.29348 12.5 5.625V8.75H1.25V5.625C1.25 5.29348 1.3817 4.97554 1.61612 4.74112C1.85054 4.5067 2.16848 4.375 2.5 4.375ZM11.25 15H2.5C2.16848 15 1.85054 14.8683 1.61612 14.6339C1.3817 14.3995 1.25 14.0815 1.25 13.75V10H12.5V13.75C12.5 14.0815 12.3683 14.3995 12.1339 14.6339C11.8995 14.8683 11.5815 15 11.25 15ZM4.375 12.8125C4.375 12.9979 4.32002 13.1792 4.217 13.3333C4.11399 13.4875 3.96757 13.6077 3.79627 13.6786C3.62496 13.7496 3.43646 13.7682 3.2546 13.732C3.07275 13.6958 2.9057 13.6065 2.77459 13.4754C2.64348 13.3443 2.55419 13.1773 2.51801 12.9954C2.48184 12.8135 2.50041 12.625 2.57136 12.4537C2.64232 12.2824 2.76248 12.136 2.91665 12.033C3.07082 11.93 3.25208 11.875 3.4375 11.875C3.68614 11.875 3.9246 11.9738 4.10041 12.1496C4.27623 12.3254 4.375 12.5639 4.375 12.8125ZM11.25 12.8125C11.25 12.9979 11.195 13.1792 11.092 13.3333C10.989 13.4875 10.8426 13.6077 10.6713 13.6786C10.5 13.7496 10.3115 13.7682 10.1296 13.732C9.94775 13.6958 9.7807 13.6065 9.64959 13.4754C9.51848 13.3443 9.42919 13.1773 9.39301 12.9954C9.35684 12.8135 9.37541 12.625 9.44636 12.4537C9.51732 12.2824 9.63748 12.136 9.79165 12.033C9.94582 11.93 10.1271 11.875 10.3125 11.875C10.5611 11.875 10.7996 11.9738 10.9754 12.1496C11.1512 12.3254 11.25 12.5639 11.25 12.8125Z" fill="#D5CABF"/>
</g>
</svg>
